<?xml version="1.0" encoding="utf-8"?>
<!-- Generator: Adobe Illustrator 22.0.1, SVG Export Plug-In . SVG Version: 6.00 Build 0)  -->
<svg version="1.1" id="Capa_1" xmlns="http://www.w3.org/2000/svg" xmlns:xlink="http://www.w3.org/1999/xlink" x="0px" y="0px"
	 viewBox="0 0 400 100" style="enable-background:new 0 0 400 100;" xml:space="preserve">
<style type="text/css">
	.st0{fill:#FFFFFF;}
</style>
<g>
	<path class="st0" d="M38.5,33.3c4.8,0,8.8,1,12.2,2.9c3.4,1.9,6,4.7,7.7,8.2c1.8,3.6,2.6,7.7,2.6,12.5c0,3.5-0.5,6.8-1.4,9.7
		c-1,2.9-2.4,5.4-4.3,7.5c-1.9,2.1-4.3,3.8-7.1,4.9c-2.8,1.1-6,1.7-9.6,1.7c-3.6,0-6.8-0.6-9.6-1.7c-2.8-1.2-5.2-2.8-7.1-4.9
		c-1.9-2.1-3.3-4.6-4.3-7.6s-1.5-6.2-1.5-9.6c0-3.5,0.5-6.8,1.5-9.7c1-2.9,2.5-5.4,4.4-7.5c1.9-2.1,4.3-3.6,7-4.7S35,33.3,38.5,33.3
		z M51.7,56.9c0-3.4-0.5-6.3-1.6-8.7c-1.1-2.5-2.6-4.3-4.6-5.6c-2-1.3-4.3-1.9-6.9-1.9c-1.9,0-3.6,0.3-5.1,1c-1.6,0.7-2.9,1.7-4.1,3
		c-1.1,1.3-2,3-2.7,5.1c-0.7,2.1-1,4.4-1,7c0,2.6,0.3,5,1,7.1s1.6,3.8,2.8,5.2c1.2,1.4,2.6,2.4,4.1,3.1c1.6,0.7,3.3,1,5.1,1
		c2.4,0,4.6-0.6,6.5-1.8c2-1.2,3.6-3,4.8-5.5C51.1,63.5,51.7,60.5,51.7,56.9z"/>
	<path class="st0" d="M100,66.1c0,2.8-0.7,5.3-2.1,7.5c-1.4,2.2-3.5,3.9-6.3,5.2s-6,1.9-9.8,1.9c-4.5,0-8.3-0.9-11.2-2.6
		c-2.1-1.2-3.8-2.9-5.1-4.9c-1.3-2.1-2-4-2-6c0-1.1,0.4-2.1,1.2-2.9s1.8-1.2,3-1.2c1,0,1.8,0.3,2.5,0.9c0.7,0.6,1.3,1.6,1.7,2.8
		c0.6,1.5,1.2,2.7,1.9,3.7c0.7,1,1.6,1.8,2.9,2.4c1.2,0.6,2.8,1,4.8,1c2.8,0,5-0.6,6.7-1.9s2.6-2.9,2.6-4.8c0-1.5-0.5-2.8-1.4-3.7
		c-0.9-0.9-2.1-1.7-3.6-2.2s-3.4-1-5.9-1.6c-3.3-0.8-6-1.7-8.3-2.7s-4-2.4-5.3-4.2c-1.3-1.8-2-4-2-6.6c0-2.5,0.7-4.8,2.1-6.7
		c1.4-2,3.4-3.5,6-4.5c2.6-1.1,5.7-1.6,9.2-1.6c2.8,0,5.2,0.3,7.3,1c2.1,0.7,3.8,1.6,5.1,2.8c1.4,1.2,2.3,2.4,3,3.6
		c0.6,1.3,0.9,2.5,0.9,3.7c0,1.1-0.4,2.1-1.2,3c-0.8,0.9-1.8,1.3-2.9,1.3c-1.1,0-1.9-0.3-2.4-0.8c-0.6-0.5-1.2-1.4-1.8-2.6
		c-0.8-1.7-1.8-3.1-3-4c-1.2-1-3-1.5-5.6-1.5c-2.4,0-4.3,0.5-5.8,1.6c-1.5,1.1-2.2,2.3-2.2,3.8c0,0.9,0.3,1.7,0.8,2.4
		c0.5,0.7,1.2,1.2,2.1,1.7c0.9,0.5,1.8,0.9,2.7,1.1c0.9,0.3,2.4,0.7,4.4,1.2c2.6,0.6,4.9,1.3,7,2c2.1,0.7,3.9,1.6,5.3,2.7
		c1.5,1,2.6,2.4,3.4,4C99.6,61.9,100,63.8,100,66.1z"/>
	<path class="st0" d="M104.5,75V38.9c0-1.9,0.4-3.3,1.3-4.2c0.9-0.9,2-1.4,3.3-1.4c1.4,0,2.5,0.5,3.4,1.4c0.9,0.9,1.3,2.3,1.3,4.2
		V75c0,1.9-0.4,3.3-1.3,4.3c-0.9,0.9-2,1.4-3.4,1.4c-1.3,0-2.4-0.5-3.3-1.4C104.9,78.3,104.5,76.9,104.5,75z"/>
	<path class="st0" d="M132.5,38.9l17.8,27V38.6c0-1.8,0.4-3.1,1.1-4c0.8-0.9,1.8-1.3,3.1-1.3c1.3,0,2.4,0.4,3.2,1.3
		c0.8,0.9,1.2,2.2,1.2,4v36c0,4-1.7,6-5,6c-0.8,0-1.6-0.1-2.3-0.4s-1.3-0.6-1.9-1.1s-1.1-1.1-1.6-1.8s-1-1.4-1.5-2.1l-17.4-26.7
		v26.8c0,1.8-0.4,3.1-1.2,4s-1.9,1.3-3.1,1.3c-1.3,0-2.4-0.5-3.2-1.4c-0.8-0.9-1.2-2.2-1.2-4V40c0-1.5,0.2-2.7,0.5-3.5
		c0.4-0.9,1.1-1.7,2-2.3c0.9-0.6,1.9-0.9,3-0.9c0.8,0,1.5,0.1,2.1,0.4c0.6,0.3,1.1,0.6,1.6,1.1c0.4,0.5,0.9,1.1,1.4,1.8
		C131.5,37.3,132,38.1,132.5,38.9z"/>
	<path class="st0" d="M186,29.7h-11.1V75c0,1.9-0.4,3.3-1.3,4.3c-0.9,0.9-2,1.4-3.3,1.4c-1.4,0-2.5-0.5-3.4-1.4
		c-0.9-0.9-1.3-2.4-1.3-4.3V29.7h-10.1c-1.6,0-2.8-0.3-3.5-1c-0.8-0.7-1.2-1.6-1.2-2.8c0-1.2,0.4-2.1,1.2-2.8c0.8-0.7,2-1,3.5-1H186
		c1.6,0,2.8,0.4,3.6,1.1c0.8,0.7,1.2,1.6,1.2,2.8c0,1.1-0.4,2.1-1.2,2.8C188.8,29.4,187.6,29.7,186,29.7z"/>
	<path class="st0" d="M193.9,60.3h-3.3V75c0,1.9-0.4,3.4-1.3,4.3c-0.9,0.9-2,1.4-3.3,1.4c-1.5,0-2.6-0.5-3.4-1.4s-1.2-2.4-1.2-4.2
		V39.8c0-2,0.4-3.4,1.3-4.3c0.9-0.9,2.3-1.3,4.3-1.3h15.1c2.1,0,3.9,0.1,5.3,0.3c1.5,0.2,2.8,0.5,4,1.1c1.4,0.6,2.7,1.5,3.8,2.6
		c1.1,1.1,1.9,2.4,2.5,3.9c0.6,1.5,0.9,3.1,0.9,4.7c0,3.4-1,6.1-2.9,8.2c-1.9,2-4.8,3.5-8.8,4.3c1.6,0.9,3.2,2.2,4.7,3.9
		s2.8,3.5,4,5.5c1.2,1.9,2.1,3.7,2.8,5.2s1,2.6,1,3.2c0,0.6-0.2,1.2-0.6,1.8c-0.4,0.6-0.9,1.1-1.6,1.4c-0.7,0.3-1.4,0.5-2.3,0.5
		c-1,0-1.9-0.2-2.6-0.7c-0.7-0.5-1.3-1.1-1.8-1.9c-0.5-0.8-1.2-1.9-2.1-3.3l-3.7-6.2c-1.3-2.3-2.5-4-3.6-5.2c-1.1-1.2-2.1-2-3.2-2.4
		C196.9,60.5,195.6,60.3,193.9,60.3z M199.2,41.1h-8.6v12.6h8.3c2.2,0,4.1-0.2,5.6-0.6c1.5-0.4,2.7-1,3.5-2c0.8-0.9,1.2-2.2,1.2-3.8
		c0-1.3-0.3-2.4-1-3.4c-0.6-1-1.5-1.7-2.7-2.2C204.6,41.3,202.4,41.1,199.2,41.1z"/>
	<path class="st0" d="M253,74.7l-2.2-5.8h-18.6l-2.2,5.9c-0.9,2.3-1.6,3.8-2.2,4.6c-0.6,0.8-1.6,1.2-3,1.2c-1.2,0-2.2-0.4-3.1-1.3
		c-0.9-0.9-1.3-1.8-1.3-2.9c0-0.6,0.1-1.3,0.3-1.9c0.2-0.7,0.6-1.6,1-2.8L233.5,42c0.3-0.9,0.7-1.9,1.2-3.1c0.5-1.2,1-2.2,1.5-3
		c0.5-0.8,1.2-1.4,2.1-1.9c0.9-0.5,1.9-0.7,3.2-0.7c1.3,0,2.4,0.2,3.2,0.7c0.9,0.5,1.6,1.1,2.1,1.9c0.5,0.8,1,1.6,1.3,2.5
		c0.4,0.9,0.8,2.1,1.4,3.5l12,29.6c0.9,2.3,1.4,3.9,1.4,4.9c0,1.1-0.4,2-1.3,2.9c-0.9,0.9-2,1.3-3.2,1.3c-0.7,0-1.4-0.1-1.9-0.4
		c-0.5-0.3-1-0.6-1.3-1.1c-0.4-0.4-0.7-1.1-1.1-2.1S253.3,75.4,253,74.7z M234.7,62h13.7l-6.9-18.9L234.7,62z"/>
	<path class="st0" d="M303.4,65.4c0,1.5-0.4,3-1.1,4.7s-1.8,3.4-3.4,5c-1.5,1.6-3.5,3-5.9,4c-2.4,1-5.2,1.5-8.4,1.5
		c-2.4,0-4.6-0.2-6.6-0.7c-2-0.5-3.8-1.2-5.4-2.1c-1.6-1-3.1-2.2-4.5-3.8c-1.2-1.4-2.2-3-3.1-4.8c-0.9-1.8-1.5-3.7-1.9-5.7
		c-0.4-2-0.6-4.2-0.6-6.4c0-3.7,0.5-7,1.6-9.9c1.1-2.9,2.6-5.4,4.6-7.5c2-2.1,4.3-3.7,7-4.7c2.7-1.1,5.6-1.6,8.6-1.6
		c3.7,0,7,0.7,9.9,2.2c2.9,1.5,5.1,3.3,6.7,5.5c1.5,2.2,2.3,4.2,2.3,6.2c0,1.1-0.4,2-1.1,2.8s-1.7,1.2-2.7,1.2
		c-1.2,0-2.1-0.3-2.7-0.8s-1.3-1.5-2-2.9c-1.2-2.3-2.6-4-4.3-5.1c-1.6-1.1-3.7-1.7-6-1.7c-3.8,0-6.8,1.4-9.1,4.3
		c-2.3,2.9-3.4,7-3.4,12.3c0,3.6,0.5,6.5,1.5,8.9s2.4,4.1,4.3,5.3c1.8,1.2,4,1.8,6.4,1.8c2.7,0,4.9-0.7,6.8-2s3.2-3.3,4.2-5.8
		c0.4-1.2,0.9-2.2,1.5-3c0.6-0.8,1.5-1.1,2.8-1.1c1.1,0,2.1,0.4,2.8,1.2C303,63.3,303.4,64.3,303.4,65.4z"/>
	<path class="st0" d="M317.3,38.9V55l18.2-19c0.9-0.9,1.6-1.6,2.2-2c0.6-0.4,1.4-0.7,2.5-0.7c1.3,0,2.4,0.4,3.2,1.2
		c0.8,0.8,1.2,1.7,1.2,2.9c0,1.4-0.7,2.7-2.1,4l-11.3,10.7l13,18.6c0.9,1.3,1.6,2.4,2.1,3.4c0.5,1,0.7,1.9,0.7,2.8
		c0,1-0.4,1.9-1.2,2.7c-0.8,0.8-1.9,1.1-3.3,1.1c-1.3,0-2.3-0.3-3.2-0.8s-1.5-1.3-2.1-2.2s-1.1-1.8-1.5-2.5l-11-16.9l-7.6,7.3V75
		c0,1.9-0.4,3.3-1.3,4.3s-2,1.4-3.4,1.4c-0.8,0-1.6-0.2-2.3-0.6c-0.7-0.4-1.3-1-1.7-1.7c-0.3-0.6-0.5-1.3-0.5-2S308,74.4,308,73
		V38.9c0-1.9,0.4-3.3,1.2-4.2c0.8-0.9,1.9-1.4,3.4-1.4c1.4,0,2.5,0.5,3.4,1.4C316.9,35.6,317.3,37,317.3,38.9z"/>
</g>
<polygon class="st0" points="328.6,35.2 325.3,29 318.6,31.3 323.6,26.2 319.3,20.6 325.6,23.8 329.7,17.9 328.6,24.9 335.4,27 
	328.4,28.2 "/>
<polygon class="st0" points="369.3,35.7 357.3,30.8 350.7,42.1 351.6,29.1 338.9,26.3 351.5,23.2 350.3,10.2 357.2,21.3 369.1,16.1 
	360.7,26 "/>
<polygon class="st0" points="354.8,80.2 360.7,62.1 343.6,53.6 362.7,53.6 365.4,34.8 371.3,52.9 390.1,49.7 374.7,60.9 383.5,77.7 
	368.1,66.5 "/>
<g>
</g>
<g>
</g>
<g>
</g>
<g>
</g>
<g>
</g>
<g>
</g>
<g>
</g>
<g>
</g>
<g>
</g>
<g>
</g>
<g>
</g>
<g>
</g>
<g>
</g>
<g>
</g>
<g>
</g>
</svg>
