<?xml version="1.0" encoding="utf-8"?>
<!-- Generator: Adobe Illustrator 22.0.1, SVG Export Plug-In . SVG Version: 6.00 Build 0)  -->
<svg version="1.1" id="Capa_1" xmlns="http://www.w3.org/2000/svg" xmlns:xlink="http://www.w3.org/1999/xlink" x="0px" y="0px"
	 viewBox="0 0 200 200" style="enable-background:new 0 0 200 200;" xml:space="preserve">
<g>
	<path d="M143,118.7l-24-28l1.4,8.7l-15.5-13.8l-0.3-0.3l15.9-14.1l-1.4,8.7l24-28l0.8,7.2l10.4-20.3l-20.5,10.7l7.3,0.6l-17.7,17.4
		l2.3-9.1l-21.8,19.4c-0.3-31.7-0.6-60.5-0.6-60.5l-2.3-5.4c0,10.7,0,19.7,0,27.4l0.4,37.1l0,3.6l-1.2,1.1l-0.7-0.6l0.1-4.1
		l0.4-37.1c0-7.7,0-16.7,0-27.4l-2.3,5.4c0,0-0.3,29-0.6,60.9L74.3,58.5l2.3,9.1L58.9,50.2l7.3-0.6L45.7,38.8l10.4,20.3l0.8-7.2
		l24,28l-1.4-8.7l15.9,14.1l-0.3,0.3L79.4,99.4l1.4-8.7l-24,28l-0.8-7.2l-10.4,20.3l20.5-10.7l-7.3-0.6l17.7-17.4l-2.3,9.1
		l22.2-19.7C96.3,116,96,139,95.8,151.3c-1-0.3-2.1-0.8-3-1.6c-0.8-1.4-1.5-3.4,2.4-5.7c-0.1-2.4,0,0,0-2.4c0,0.1-0.1,0.3-1.1-0.1
		c-4.9,3.4-3.9,7.1-4.1,6.8c-0.4,0.2-1.2,0.1-2-0.1c0.1-1-0.3-3.5,1.7-5.2c1-0.5,1.7-1.7,0.9-2.9c-0.4-0.4-0.7-0.4-1.1-0.6
		c-1.8-2.4-2.5-3.2-5.3-1.2c-1.1-0.1-2.1,0.6-3.2,1.9c0.7,0.7,0.3,0.6,0,1c3.1,3.3,0.9,4.6,1.8,5.5c4.8,7.2,13,8.2,15.1,8.3
		c-0.1,0.1-0.3,0.1-0.4,0.2c-2.6,4.5-1.8,12.9-0.1,16.9c0.1,0.2,0.5,1,0.8,1.9c-0.2-0.5-0.4-0.8-0.4-0.8c0.1-0.2-0.7,1.2-1.4,0.9
		c-0.9-0.4-1.5-0.7-2,0.4c-1.1,1.6-0.9,4,0.2,6.3c1.1,1.6,2.6,3,3.5,3.5c0.4,1.9,3.3,2.6,4.1-0.2c0.8-0.1,2.4-1.4,3.3-2.9
		c0.6-0.9,1.8-3.5,1.2-5.3c-0.5-0.7-1-1.7-2-2c-0.3,0-0.7,0.1-1,0.3c-1.1,0.4-0.9-0.3-1.3-0.9c0,0-0.1,0-0.1,0.2l0,0
		c0.2-0.4,0.3-0.8,0.6-1.2c0.6-1.2,1.3-3.9,1.6-7.1c0.1,0,0.1-0.1,0.1-0.1l-0.1,0c0.4-3.5,0.2-7.5-1.1-10.2c0,0,0,0,0,0
		c2.5-0.3,10.1-2,14.2-9.2c0.9-1-1.4-2.1,1.5-5.6c-0.3-0.4-0.7-0.3,0-1c-1.1-1.2-2.2-1.9-3.3-1.7c-3-1.9-3.6-1-5.2,1.5
		c-0.4,0.3-0.8,0.2-1.1,0.7c-0.7,1.3,0.1,2.4,1.1,2.9c2.1,1.6,1.8,4.1,2,5.1c-0.8,0.3-1.5,0.4-2,0.2c-0.1,0.3,0.6-3.5-4.5-6.5
		c-1,0.5-1.1,0.2-1.1,0.1c0.1,2.4,0.1,0,0.1,2.4c4,2,3.4,4.1,2.8,5.5c-1.1,1-2.2,1.6-3.3,1.9c-0.2-12.2-0.4-34.9-0.7-58.3l21.7,19.2
		l-2.3-9.1l17.7,17.4l-7.3,0.6l20.5,10.7l-10.4-20.3L143,118.7z M85.8,146.6c-1.1-1.6-2-3.8-1-5.4c0.7-1,1.5-1.4,2.1-0.9
		c0.7,0.8,1.1,1.6,0.1,2.6c-0.6,1.1-1.2,3.8-0.8,4c0.1,0.1,0.2,0.2,0.3,0.3C86.2,147.1,86,146.9,85.8,146.6z M98.7,181.9
		c-1.1,0-3.1-3.1-2.7-5.2c0.6-1.9,2.9-0.6,3,0c0-0.6-0.1-1.2-0.3-1.8c0.4,1,0.6,1.9,0.4,2.2c-1.1,1-0.4,2.9,0,3.4
		C99.4,181.3,99.4,182,98.7,181.9z M104.2,176.5c0.7,1.6-0.4,4.1-1.3,4.8c-1,0.9-1.7-0.1-1.7-0.6c0.8-0.9,1.2-2.2,0.4-3.5
		c0-0.2,0-0.3,0.1-0.5c0,0.1,0,0.3,0.1,0.4C102.3,176,103.6,175.7,104.2,176.5z M102.4,173.4c-0.1,0.1-0.1,0.3-0.2,0.5
		C102.2,173.8,102.3,173.6,102.4,173.4C102.3,173.4,102.4,173.4,102.4,173.4z M113.2,142.3c-1-1-0.7-1.8,0-2.6
		c0.5-0.6,1.3-0.2,2.1,0.7c1.1,1.5,0.3,3.8-0.7,5.4c-0.1,0.3-0.4,0.5-0.6,0.8c0.1-0.1,0.2-0.2,0.2-0.3
		C114.6,146,113.8,143.3,113.2,142.3z M102,151.6c-0.5,0-1,0-1.3,0c0,0,0,0,0,0c-0.1,0-0.2,0-0.3-0.1c-0.5,0-1.2,0.1-2,0.1l0.8-61.4
		l0.6-0.5l0.2-0.2l0.2,0.2l1.1,1L102,151.6z"/>
	<path d="M105,141.4C105,141.4,105,141.4,105,141.4C105,141.4,105,141.4,105,141.4z"/>
	<path d="M95.2,141.6C95.2,141.6,95.2,141.6,95.2,141.6C95.2,141.6,95.2,141.6,95.2,141.6z"/>
</g>
<g>
</g>
<g>
</g>
<g>
</g>
<g>
</g>
<g>
</g>
<g>
</g>
<g>
</g>
<g>
</g>
<g>
</g>
<g>
</g>
<g>
</g>
<g>
</g>
<g>
</g>
<g>
</g>
<g>
</g>
</svg>
